Coordinates
version=1
nRows=14
nColumns=46
inDegrees=yes

Units are S.I. units (second, meters, Newtons, ...)
Angles are in degrees.

endheader
time	pelvis_tilt	pelvis_list	pelvis_rotation	pelvis_tx	pelvis_ty	pelvis_tz	bb_angle	bb_tx	bb_ty	bb_tz	hip_flexion_r	hip_adduction_r	hip_rotation_r	knee_angle_r	knee_angle_r_beta	ankle_angle_r	subtalar_angle_r	mtp_angle_r	crank_angle_r	hip_flexion_l	hip_adduction_l	hip_rotation_l	knee_angle_l	knee_angle_l_beta	ankle_angle_l	subtalar_angle_l	mtp_angle_l	crank_angle_l	lumbar_extension	lumbar_bending	lumbar_rotation	arm_flex_r	arm_add_r	arm_rot_r	elbow_flex_r	pro_sup_r	wrist_flex_r	wrist_dev_r	arm_flex_l	arm_add_l	arm_rot_l	elbow_flex_l	pro_sup_l	wrist_flex_l	wrist_dev_l
      5.00500000	    -16.71162402	     -9.18163987	     -3.59773135	      0.11356307	      1.11470392	     -0.28325893	      0.00000000	      0.50000000	      0.00000000	      0.25000000	     90.04497301	      0.75780839	     -3.13976949	    103.02373670	      1.79810341	      9.34884588	    -13.24700964	      0.00000000	      0.00000000	     46.71987059	    -11.71609767	      2.00242241	     45.46157785	      0.79345422	    -21.20757782	    -14.40449177	      0.00000000	      0.00000000	    -59.27378173	      4.12652187	      1.16656100	     89.79304033	      0.57567761	     27.21924760	     39.44254031	     24.11829851	      0.00000000	      0.00000000	     89.69111659	    -14.29127296	     32.23317778	     43.06616920	     26.62722315	      0.00000000	      0.00000000
      5.01000000	    -16.71780769	     -9.07313281	     -3.53683214	      0.11350643	      1.11518600	     -0.28284433	      0.00000000	      0.50000000	      0.00000000	      0.25000000	     89.17368322	      0.94824056	     -3.07118046	    101.13021804	      1.76505528	     10.58201741	    -13.37693688	      0.00000000	      0.00000000	     47.40952330	    -11.45664932	      2.56420432	     47.69854513	      0.83249666	    -21.03147471	    -15.12562813	      0.00000000	      0.00000000	    -59.24619541	      4.08798398	      0.95578876	     89.79259675	      0.71510822	     27.33607208	     39.40557660	     24.04077786	      0.00000000	      0.00000000	     89.69604274	    -14.47925110	     32.27825569	     43.00816133	     26.57740838	      0.00000000	      0.00000000
      5.01500000	    -16.75048565	     -9.11563408	     -3.41304933	      0.11348425	      1.11550321	     -0.28263641	      0.00000000	      0.50000000	      0.00000000	      0.25000000	     88.20592471	      1.06097448	     -3.20463780	     99.03592667	      1.72850300	     11.61293232	    -13.59254632	      0.00000000	      0.00000000	     48.22969511	    -11.25990642	      3.26629599	     50.03477858	      0.87327163	    -20.74629622	    -15.75425372	      0.00000000	      0.00000000	    -59.22900926	      4.25517644	      0.82795905	     89.79465439	      0.90377906	     27.47558424	     39.40491242	     23.96412374	      0.00000000	      0.00000000	     89.69412112	    -14.69150416	     32.37155087	     42.92163297	     26.52207810	      0.00000000	      0.00000000
      5.02000000	    -16.75440699	     -9.02738085	     -3.24886199	      0.11357352	      1.11569403	     -0.28229700	      0.00000000	      0.50000000	      0.00000000	      0.25000000	     87.18511945	      1.07988241	     -3.25327439	     96.88955855	      1.69104181	     12.40207085	    -13.81166555	      0.00000000	      0.00000000	     49.02177697	    -10.95261947	      3.84173155	     52.40311980	      0.91460698	    -20.34725990	    -16.19866892	      0.00000000	      0.00000000	    -59.22533158	      4.31336146	      0.64055690	     89.79412119	      0.99815107	     27.55984717	     39.37799967	     23.89445775	      0.00000000	      0.00000000	     89.69476214	    -14.82957730	     32.49053840	     42.86776517	     26.48212641	      0.00000000	      0.00000000
      5.02500000	    -16.91020381	     -9.16516321	     -3.07053416	      0.11363436	      1.11552805	     -0.28191816	      0.00000000	      0.50000000	      0.00000000	      0.25000000	     86.21476770	      1.13233937	     -3.57008416	     94.56950623	      1.65054926	     12.92983306	    -14.19252981	      0.00000000	      0.00000000	     50.09141476	    -10.80815359	      4.66135774	     54.87279602	      0.95771096	    -19.64939121	    -16.19056953	      0.00000000	      0.00000000	    -59.03457716	      4.54469967	      0.59189863	     89.79442422	      1.10679037	     27.74202229	     39.17556115	     23.68309628	      0.00000000	      0.00000000	     89.69180523	    -15.08597836	     32.86348846	     42.82808620	     26.39929285	      0.00000000	      0.00000000
      5.03000000	    -16.84888044	     -8.67738519	     -2.88786630	      0.11394891	      1.11581064	     -0.28142544	      0.00000000	      0.50000000	      0.00000000	      0.25000000	     85.06789993	      1.05823737	     -3.23053825	     92.28924857	      1.61075125	     13.28932943	    -14.35915773	      0.00000000	      0.00000000	     50.65009565	    -10.15973863	      4.94286942	     56.99270661	      0.99471038	    -19.31116947	    -16.50398271	      0.00000000	      0.00000000	    -59.03768539	      4.19137714	      0.03565373	     89.79274086	      0.96442625	     27.67874062	     39.19304488	     23.65779473	      0.00000000	      0.00000000	     89.70202908	    -15.03072747	     32.94261009	     42.82632608	     26.38991773	      0.00000000	      0.00000000
      5.03500000	    -16.90737585	     -8.82750325	     -2.64451459	      0.11417212	      1.11531658	     -0.28094445	      0.00000000	      0.50000000	      0.00000000	      0.25000000	     83.94719872	      1.02922406	     -3.62607265	     89.92678584	      1.56951850	     13.54020496	    -14.81629458	      0.00000000	      0.00000000	     51.70860809	    -10.05478625	      5.59979987	     59.61878075	      1.04054402	    -18.14250366	    -16.50989893	      0.00000000	      0.00000000	    -58.95167763	      4.56106228	      0.11780817	     89.79409433	      1.12186808	     27.74787265	     39.13514434	     23.54175922	      0.00000000	      0.00000000	     89.69418682	    -15.31655086	     33.14015663	     42.85328568	     26.34664983	      0.00000000	      0.00000000
      5.04000000	    -16.97611721	     -8.63951439	     -2.46475631	      0.11455575	      1.11479018	     -0.28016096	      0.00000000	      0.50000000	      0.00000000	      0.25000000	     82.88353554	      0.99223549	     -3.68833676	     87.56380048	      1.52827662	     13.33494085	    -15.39235170	      0.00000000	      0.00000000	     52.65970047	     -9.77356831	      5.94244623	     62.08566269	      1.08359923	    -17.03474993	    -16.05234357	      0.00000000	      0.00000000	    -58.80087026	      4.51784339	     -0.15512595	     89.79291906	      1.15514581	     27.82596548	     38.95646108	     23.32675889	      0.00000000	      0.00000000	     89.69394587	    -15.59940683	     33.50391985	     42.91233655	     26.27815941	      0.00000000	      0.00000000
      5.04500000	    -16.90826385	     -8.38380487	     -2.24298784	      0.11503299	      1.11447135	     -0.27939703	      0.00000000	      0.50000000	      0.00000000	      0.25000000	     81.64043866	      0.88759012	     -3.64116735	     85.20313939	      1.48707532	     13.09252926	    -15.58970540	      0.00000000	      0.00000000	     53.43141200	     -9.41514718	      6.19741513	     64.47913441	      1.12537319	    -16.03129802	    -15.99875850	      0.00000000	      0.00000000	    -58.81220110	      4.49751188	     -0.51551754	     89.78938600	      1.35617882	     28.12250486	     38.77869390	     23.21466865	      0.00000000	      0.00000000	     89.69537025	    -15.84482662	     33.65850140	     42.99895052	     26.24666267	      0.00000000	      0.00000000
      5.05000000	    -16.87198218	     -8.10911155	     -2.05343599	      0.11564893	      1.11392479	     -0.27847939	      0.00000000	      0.50000000	      0.00000000	      0.25000000	     80.44181299	      0.78007724	     -3.66460297	     82.81404886	      1.44537782	     12.56130615	    -16.05900571	      0.00000000	      0.00000000	     54.27876665	     -9.10566913	      6.39531737	     66.92326410	      1.16803130	    -14.86636815	    -15.56906672	      0.00000000	      0.00000000	    -58.78658451	      4.41568076	     -0.89930224	     89.78842758	      1.41595862	     28.37808768	     38.62530376	     23.09120134	      0.00000000	      0.00000000	     89.69332490	    -16.12057815	     33.89143736	     43.16763206	     26.22591362	      0.00000000	      0.00000000
      5.05500000	    -16.76257314	     -7.65093692	     -1.82658676	      0.11630214	      1.11336185	     -0.27763407	      0.00000000	      0.50000000	      0.00000000	      0.25000000	     79.19894764	      0.54414570	     -3.46130946	     80.51923777	      1.40532581	     11.95109971	    -16.12475892	      0.00000000	      0.00000000	     55.02457576	     -8.63735220	      6.38495360	     69.30707547	      1.20963666	    -13.85678391	    -15.59143519	      0.00000000	      0.00000000	    -58.80076855	      4.23888744	     -1.38177093	     89.78635084	      1.37252923	     28.46529961	     38.58098906	     23.03452297	      0.00000000	      0.00000000	     89.69426900	    -16.23097992	     34.02752231	     43.26593116	     26.21882867	      0.00000000	      0.00000000
      5.06000000	    -16.65554080	     -7.03403131	     -1.56079436	      0.11696840	      1.11280945	     -0.27670960	      0.00000000	      0.50000000	      0.00000000	      0.25000000	     77.95765709	      0.21210608	     -3.08025384	     78.25163931	      1.36574875	     11.47190997	    -15.96506322	      0.00000000	      0.00000000	     55.77954840	     -8.04551275	      6.24388508	     71.57042891	      1.24913963	    -13.38740521	    -15.63322714	      0.00000000	      0.00000000	    -58.81832252	      3.91009944	     -2.03345660	     89.78327597	      1.21768810	     28.43408381	     38.56991781	     23.01619869	      0.00000000	      0.00000000	     89.69638938	    -16.17911449	     34.10401010	     43.30707279	     26.22071217	      0.00000000	      0.00000000
      5.06500000	    -16.60350032	     -6.93562932	     -1.48775460	      0.11760318	      1.11171772	     -0.27519789	      0.00000000	      0.50000000	      0.00000000	      0.25000000	     76.77298801	      0.32315547	     -3.08716672	     75.98379141	      1.32616734	     10.02866053	    -16.44091241	      0.00000000	      0.00000000	     56.81679092	     -8.12659353	      6.36987707	     74.20093117	      1.29505056	    -11.61366060	    -14.45490996	      0.00000000	      0.00000000	    -58.81966944	      3.92527018	     -2.20503867	     89.78326247	      1.41734332	     28.72449694	     38.42026974	     22.90379890	      0.00000000	      0.00000000	     89.69119909	    -16.66830006	     34.31619256	     43.58797092	     26.22048855	      0.00000000	      0.00000000
      5.07000000	    -16.44586321	     -6.43139431	     -1.29294664	      0.11842119	      1.11090989	     -0.27409375	      0.00000000	      0.50000000	      0.00000000	      0.25000000	     75.46651246	      0.05785407	     -2.95340988	     73.75665184	      1.28729642	      8.99740048	    -16.82387977	      0.00000000	      0.00000000	     57.65263453	     -7.79200506	      6.14519562	     76.59465860	      1.33682898	    -10.63964354	    -14.09361622	      0.00000000	      0.00000000	    -58.88571184	      3.70699182	     -2.72035644	     89.78208399	      1.40144564	     28.90705851	     38.31583704	     22.80213446	      0.00000000	      0.00000000	     89.69166651	    -16.86304451	     34.61705819	     43.78010658	     26.21338318	      0.00000000	      0.00000000
